<?xml version="1.0" standalone="no"?>
<!DOCTYPE svg PUBLIC "-//W3C//DTD SVG 20010904//EN"
 "http://www.w3.org/TR/2001/REC-SVG-20010904/DTD/svg10.dtd">
<svg version="1.0" xmlns="http://www.w3.org/2000/svg"
 width="1000.000000pt" height="1000.000000pt" viewBox="0 0 1000.000000 1000.000000"
 preserveAspectRatio="xMidYMid meet">

<g transform="translate(0.000000,1000.000000) scale(0.100000,-0.100000)"
fill="#000000" stroke="none">
<path d="M4203 9338 c-6 -7 -16 -69 -23 -138 -25 -255 -68 -365 -254 -660
-331 -525 -507 -1024 -570 -1615 -54 -511 -12 -951 151 -1575 19 -74 102 -358
183 -630 220 -736 261 -887 300 -1112 34 -202 43 -331 37 -532 -12 -387 -69
-687 -197 -1028 -33 -87 -87 -229 -120 -316 -71 -189 -113 -332 -146 -495 -22
-106 -54 -340 -54 -389 0 -22 27 -48 50 -48 32 0 47 27 55 97 31 305 94 553
232 908 188 483 249 734 274 1130 32 499 -20 785 -322 1770 -286 931 -359
1300 -359 1815 0 383 35 648 131 997 94 341 228 633 453 986 124 195 166 275
200 387 34 111 45 171 57 309 9 102 8 115 -7 132 -20 22 -57 25 -71 7z"/>
<path d="M5631 9161 c-38 -24 -117 -644 -109 -862 3 -104 6 -120 36 -183 39
-84 110 -187 257 -371 327 -413 449 -597 539 -817 64 -155 80 -240 80 -433 0
-192 -15 -274 -79 -432 -19 -48 -35 -92 -35 -99 0 -6 25 -74 56 -150 114 -284
225 -659 273 -919 54 -297 56 -333 56 -1060 1 -644 2 -688 23 -830 82 -565 42
-1251 -120 -2037 -24 -120 -22 -149 14 -162 41 -14 62 11 77 91 7 38 24 122
36 188 49 257 87 532 115 845 29 310 24 758 -9 1000 -12 85 -26 191 -32 235
-8 54 -9 208 -3 480 15 776 1 1004 -87 1405 -51 235 -107 419 -220 723 l-71
189 26 70 c60 160 86 299 87 456 3 369 -150 697 -574 1230 -187 235 -257 331
-299 408 -40 74 -43 84 -46 174 -4 110 26 425 63 653 30 184 29 181 9 201 -17
18 -42 20 -63 7z"/>
<path d="M5577 6776 c-18 -19 -74 -218 -99 -356 -17 -92 -21 -178 -28 -680
-11 -768 -40 -1093 -121 -1352 l-21 -67 20 -58 c121 -349 159 -468 232 -722
136 -481 197 -806 225 -1206 39 -566 91 -847 241 -1302 67 -204 82 -231 118
-217 32 12 26 47 -43 257 -130 397 -189 687 -216 1063 -37 523 -69 742 -163
1119 -68 271 -123 457 -245 823 l-80 242 21 74 c77 263 122 819 122 1500 0
422 8 500 71 719 30 107 37 142 29 157 -13 23 -43 26 -63 6z"/>
<path d="M4240 6640 c-20 -12 -35 -162 -51 -505 -27 -581 30 -1193 171 -1825
22 -98 34 -213 70 -670 51 -653 98 -869 265 -1230 35 -74 180 -373 324 -665
251 -510 365 -759 392 -855 16 -57 40 -84 67 -76 35 11 34 38 -2 142 -55 158
-112 279 -506 1079 -294 596 -325 673 -374 915 -42 205 -50 285 -111 1050 -12
147 -26 247 -50 355 -86 387 -131 710 -156 1113 -13 224 -7 755 12 996 12 151
11 160 -6 172 -22 16 -25 17 -45 4z"/>
</g>
</svg>
