<?xml version="1.0" standalone="no"?>
<!DOCTYPE svg PUBLIC "-//W3C//DTD SVG 20010904//EN"
 "http://www.w3.org/TR/2001/REC-SVG-20010904/DTD/svg10.dtd">
<svg version="1.0" xmlns="http://www.w3.org/2000/svg"
 width="1000.000000pt" height="1000.000000pt" viewBox="0 0 1000.000000 1000.000000"
 preserveAspectRatio="xMidYMid meet">

<g transform="translate(0.000000,1000.000000) scale(0.100000,-0.100000)"
fill="#000000" stroke="none">
<path d="M5632 9567 c-16 -19 -67 -235 -99 -416 -22 -129 -27 -187 -27 -336
-1 -266 31 -394 181 -725 136 -300 184 -461 203 -682 23 -276 -38 -556 -172
-782 -186 -316 -211 -433 -238 -1116 -12 -290 -27 -491 -65 -878 -31 -313 -47
-657 -39 -822 9 -192 30 -322 99 -597 89 -354 108 -476 108 -698 1 -189 -16
-336 -69 -625 -43 -230 -93 -558 -109 -711 -18 -175 -39 -622 -30 -650 8 -23
50 -26 59 -3 3 9 6 70 6 137 0 121 25 536 34 566 3 9 10 63 16 120 6 58 34
233 62 390 82 470 91 542 91 766 1 241 -11 330 -89 640 -74 295 -91 376 -104
496 -21 211 -7 688 30 1014 26 226 51 563 60 815 25 651 62 863 179 1040 73
109 128 220 165 332 94 284 98 581 12 883 -31 109 -59 179 -186 465 -177 399
-190 667 -58 1227 17 72 28 139 25 147 -8 19 -31 21 -45 3z"/>
<path d="M3706 9525 c-3 -8 -1 -61 5 -117 6 -57 14 -436 19 -843 9 -775 11
-820 64 -1167 25 -165 36 -364 46 -858 10 -478 15 -548 61 -840 36 -230 125
-626 224 -995 107 -397 126 -491 161 -780 28 -237 45 -308 120 -515 88 -244
120 -418 149 -825 28 -395 65 -750 90 -875 19 -97 56 -454 66 -646 10 -181 10
-265 1 -389 -10 -131 -10 -162 1 -172 16 -16 43 -8 53 15 3 9 9 132 11 272 4
191 1 299 -11 430 -17 177 -21 205 -75 610 -39 295 -47 371 -66 640 -22 320
-42 507 -70 647 -26 127 -40 173 -123 410 -29 82 -54 176 -61 225 -6 45 -22
169 -36 273 -29 222 -48 307 -155 710 -220 827 -280 1217 -280 1832 0 300 -15
627 -35 763 -60 415 -57 368 -66 1145 -8 681 -21 1020 -42 1053 -11 17 -44 15
-51 -3z"/>
</g>
</svg>
