<?xml version="1.0" standalone="no"?>
<!DOCTYPE svg PUBLIC "-//W3C//DTD SVG 20010904//EN"
 "http://www.w3.org/TR/2001/REC-SVG-20010904/DTD/svg10.dtd">
<svg version="1.0" xmlns="http://www.w3.org/2000/svg"
 width="1000.000000pt" height="1000.000000pt" viewBox="0 0 1000.000000 1000.000000"
 preserveAspectRatio="xMidYMid meet">

<g transform="translate(0.000000,1000.000000) scale(0.100000,-0.100000)"
fill="#000000" stroke="none">
<path d="M3844 9666 c-3 -7 8 -80 25 -162 53 -267 65 -379 65 -619 0 -245 3
-226 -98 -562 -308 -1021 -335 -1472 -146 -2363 56 -265 101 -463 164 -720
146 -604 161 -760 101 -1080 -32 -174 -62 -385 -75 -530 -21 -223 12 -466 117
-870 193 -745 222 -877 250 -1110 14 -122 15 -158 4 -241 -7 -59 -9 -133 -5
-187 l7 -90 -41 -83 c-51 -103 -131 -211 -257 -346 -91 -97 -125 -149 -125
-191 0 -30 38 -72 66 -72 13 0 33 -9 44 -20 13 -13 33 -20 58 -20 21 0 48 -7
60 -16 13 -9 38 -14 60 -13 20 1 51 -5 69 -14 40 -21 85 -22 124 -2 27 15 31
14 59 -6 36 -27 118 -36 178 -19 59 15 126 79 146 137 10 28 16 80 16 128 0
86 -3 78 66 173 28 37 28 107 3 202 -19 71 -23 111 -24 250 -1 123 -6 188 -21
255 -17 79 -19 129 -19 415 1 312 17 569 55 850 20 150 33 403 27 539 -3 80
-18 229 -34 331 -40 270 -39 432 5 642 l32 157 -2 398 c-3 452 1 501 103 1258
37 278 59 526 59 681 0 66 2 123 4 125 3 2 25 3 49 1 l45 -4 4 -261 c3 -152
12 -317 22 -392 100 -798 111 -924 106 -1255 -7 -615 -8 -592 25 -730 43 -180
41 -340 -6 -610 -32 -187 -33 -205 -33 -450 0 -190 6 -305 22 -450 41 -375 47
-476 47 -770 -1 -302 -10 -407 -50 -545 -10 -34 -14 -91 -13 -180 1 -105 -3
-147 -21 -220 -40 -161 -29 -223 53 -290 54 -44 56 -49 65 -157 6 -71 13 -97
37 -135 58 -95 196 -132 295 -80 38 20 47 22 69 10 34 -18 75 -16 113 4 18 9
47 15 65 14 18 -1 44 4 57 13 13 9 42 16 63 16 26 0 45 7 57 20 10 11 31 20
47 20 61 0 88 73 51 143 -9 18 -77 95 -152 172 -147 150 -217 241 -255 326
-22 52 -23 65 -24 297 -2 205 1 259 19 350 41 218 66 321 154 634 92 331 109
396 155 581 103 414 107 649 17 1152 -29 163 -32 199 -32 380 1 231 -3 212
145 835 241 1019 274 1210 273 1600 0 412 -64 761 -258 1423 -78 265 -94 338
-102 475 -10 180 24 451 102 828 8 34 -9 54 -27 36 -13 -13 -38 -124 -79 -347
-26 -144 -32 -203 -36 -388 l-6 -218 -65 -62 c-77 -74 -224 -255 -219 -270 9
-27 29 -11 100 75 41 51 102 119 135 152 l60 58 7 -33 c12 -59 75 -289 112
-409 93 -307 171 -652 210 -930 25 -177 25 -606 0 -781 -34 -242 -87 -504
-186 -924 -22 -93 -69 -296 -106 -450 -93 -396 -118 -556 -112 -720 3 -73 18
-211 35 -315 65 -395 66 -408 66 -605 -1 -164 -4 -209 -28 -328 -31 -164 -92
-402 -175 -692 -166 -583 -220 -854 -206 -1044 8 -121 9 -127 4 -236 -3 -69 1
-88 24 -138 45 -98 127 -205 273 -357 140 -145 168 -186 143 -216 -18 -22 -36
-17 -49 15 -17 43 -57 78 -72 63 -8 -8 -4 -21 17 -52 33 -47 27 -73 -17 -78
-21 -3 -28 3 -37 30 -13 37 -58 88 -78 88 -18 0 -16 -35 3 -51 8 -7 22 -26 31
-42 13 -26 13 -31 0 -45 -20 -19 -67 -8 -67 16 0 23 -69 122 -86 122 -24 0
-27 -22 -5 -48 12 -15 29 -42 38 -59 16 -31 15 -34 -2 -53 -10 -11 -28 -20
-40 -20 -26 0 -75 36 -75 55 0 24 -79 115 -100 115 -27 0 -25 -22 4 -49 13
-12 32 -38 42 -57 18 -33 18 -34 -2 -55 -48 -47 -163 -32 -225 30 -40 40 -59
91 -59 162 0 72 -18 110 -81 169 -58 55 -59 57 -59 110 0 30 10 84 22 120 18
54 22 92 24 223 1 103 8 182 18 225 61 257 70 608 26 1027 -67 630 -68 834 -8
1205 43 265 42 381 -1 580 l-32 145 7 400 c7 417 2 519 -36 835 -11 91 -29
239 -40 330 -44 369 -52 472 -54 710 l-2 245 -65 7 c-72 7 -108 19 -150 49
-16 11 -33 17 -39 14 -20 -13 -9 -35 30 -60 47 -30 45 -9 30 -290 -10 -192
-19 -273 -90 -825 -66 -516 -73 -621 -67 -995 6 -342 1 -432 -33 -565 -44
-171 -44 -387 0 -635 45 -259 45 -505 0 -895 -41 -356 -54 -552 -54 -845 0
-274 2 -297 26 -416 23 -109 26 -142 21 -245 -5 -107 -3 -132 21 -232 30 -123
26 -171 -15 -208 -39 -36 -52 -76 -59 -185 -5 -96 -9 -110 -33 -143 -47 -61
-132 -89 -200 -67 -69 23 -73 60 -12 127 39 43 42 52 18 61 -20 8 -75 -51
-100 -110 -28 -62 -98 -87 -127 -46 -17 25 -13 42 26 92 28 35 32 67 9 67 -16
0 -82 -84 -88 -112 -6 -30 -31 -43 -63 -33 -27 8 -26 48 1 86 20 28 20 59 1
59 -13 0 -53 -59 -61 -89 -5 -18 -15 -27 -33 -29 -43 -5 -46 44 -6 100 10 14
10 20 1 29 -16 16 -38 -2 -64 -53 -20 -40 -41 -46 -47 -14 -8 39 13 72 102
165 188 197 310 391 309 493 0 29 0 91 0 138 2 404 3 390 -46 630 -25 124 -74
329 -107 455 -174 655 -209 826 -217 1045 -7 178 1 255 57 591 83 495 79 552
-88 1254 -188 786 -245 1089 -272 1450 -28 361 41 828 207 1400 62 214 127
446 137 488 3 15 10 27 14 27 10 0 182 -176 239 -244 28 -34 46 -47 57 -43 9
4 16 11 16 17 0 24 -275 310 -299 310 -6 0 -8 46 -4 138 3 80 1 187 -6 257
-18 179 -86 563 -106 594 -9 15 -25 14 -31 -3z"/>
<path d="M4975 8351 c-3 -11 -1 -29 5 -41 21 -40 75 -15 68 32 -4 32 -63 39
-73 9z"/>
<path d="M4127 4494 c-32 -33 37 -330 83 -359 28 -18 27 16 -5 110 -19 55 -38
133 -42 174 -7 69 -19 92 -36 75z"/>
<path d="M5826 4488 c-2 -7 -9 -44 -16 -83 -6 -38 -25 -103 -41 -144 -19 -47
-26 -78 -20 -84 15 -15 32 2 57 58 50 114 72 265 39 265 -9 0 -17 -6 -19 -12z"/>
<path d="M4577 4433 c-4 -3 -7 -16 -7 -29 0 -27 -33 -106 -60 -144 -25 -36
-25 -42 2 -38 62 9 136 218 78 218 -4 0 -10 -3 -13 -7z"/>
<path d="M5374 4425 c-17 -43 43 -192 86 -215 33 -18 35 13 4 59 -15 23 -35
69 -44 103 -17 63 -35 83 -46 53z"/>
</g>
</svg>
