<?xml version="1.0" standalone="no"?>
<!DOCTYPE svg PUBLIC "-//W3C//DTD SVG 20010904//EN"
 "http://www.w3.org/TR/2001/REC-SVG-20010904/DTD/svg10.dtd">
<svg version="1.0" xmlns="http://www.w3.org/2000/svg"
 width="1000.000000pt" height="1000.000000pt" viewBox="0 0 1000.000000 1000.000000"
 preserveAspectRatio="xMidYMid meet">

<g transform="translate(0.000000,1000.000000) scale(0.100000,-0.100000)"
fill="#000000" stroke="none">
<path d="M6353 5913 c2 -15 30 -92 60 -170 114 -292 207 -633 256 -944 39
-247 44 -355 46 -1039 1 -631 2 -672 23 -805 32 -208 46 -534 33 -785 -19
-367 -80 -830 -162 -1227 -10 -51 -16 -100 -13 -108 9 -23 53 -30 71 -12 10 9
26 69 40 144 111 602 154 994 154 1438 0 279 -10 429 -46 660 -12 79 -15 171
-13 440 7 927 0 1095 -63 1425 -53 275 -150 604 -267 905 l-39 100 -43 3 c-42
3 -42 3 -37 -25z"/>
</g>
</svg>
