<?xml version='1.0' encoding='utf-8'?>
<svg version="1.0" width="1000.000000pt" height="1000.000000pt" viewBox="0 0 10000 10000" preserveAspectRatio="xMidYMid meet" xmlns="http://www.w3.org/2000/svg">
  <title>SVG com regioes anatomicas agrupadas para edicao por JavaScript/React</title>
  <desc>Cada regiao editavel foi colocada em um grupo &lt;g id="..."&gt;. Use inline SVG, nao &lt;img&gt;, para manipular via CSS/JS.</desc>
  <g id="avatar_partes_anatomicas" class="avatar-partes-anatomicas" transform="scale(1,-1) translate(0,-10000)">
    <g id="busto_editavel" class="regiao-anatomica" data-region="busto">
      <path d="M5265 9460 c-17 -18 -18 -36 -12 -212 14 -414 105 -758 302 -1136 127 -244 232 -383 492 -654 548 -572 740 -837 832 -1148 109 -367 -7 -714 -312 -928 -45 -31 -83 -66 -89 -81 -7 -18 -8 -196 -4 -551 11 -884 32 -1565 66 -2065 37 -566 43 -728 36 -1023 -8 -334 -14 -406 -37 -410 -21 -4 -112 91 -165 174 -60 94 -77 157 -125 458 -106 678 -261 1308 -424 1721 -64 163 -191 429 -243 507 l-27 42 -7 350 c-4 232 -12 390 -22 466 -9 63 -22 162 -30 220 -38 279 -91 523 -171 795 -26 88 -61 205 -77 260 -53 180 -68 262 -68 391 0 132 14 197 55 258 28 42 32 78 10 96 -42 35 -114 -56 -141 -178 -13 -59 -15 -105 -11 -221 6 -158 16 -202 120 -546 47 -153 110 -397 122 -470 4 -22 13 -65 21 -96 15 -61 43 -242 75 -492 15 -120 23 -250 28 -503 7 -338 7 -341 32 -390 14 -27 60 -114 101 -194 244 -464 415 -1094 592 -2179 31 -184 56 -258 126 -364 46 -71 134 -162 178 -186 35 -19 100 -16 122 4 45 41 61 204 61 613 0 217 -7 417 -20 610 -27 384 -48 837 -61 1292 -15 527 -29 1519 -23 1555 3 17 12 34 20 38 47 28 171 139 218 195 328 392 261 930 -184 1482 -97 121 -325 374 -505 560 -247 256 -354 399 -480 641 -195 373 -279 693 -293 1107 -6 170 -7 184 -27 197 -26 19 -29 19 -51 -5z" id="bust_1" class="busto-path" data-part="bust_1" />
    </g>
    <g id="abdome_editavel" class="regiao-anatomica" data-region="abdome">
      <path d="M4092 9457 c-6 -7 -22 -45 -36 -84 -32 -88 -140 -333 -284 -648 -290 -634 -396 -1002 -409 -1425 -13 -416 42 -770 189 -1205 60 -179 85 -245 253 -670 267 -675 381 -1008 432 -1264 34 -172 43 -426 19 -567 -34 -196 -66 -267 -256 -554 -366 -554 -652 -1204 -811 -1843 -23 -90 -27 -122 -19 -137 12 -22 52 -27 68 -7 6 6 31 90 56 184 101 377 234 732 420 1118 105 218 186 358 354 620 164 253 223 368 259 500 26 95 27 111 27 335 1 208 -2 249 -23 355 -47 239 -194 677 -401 1195 -326 818 -403 1061 -456 1440 -23 159 -26 603 -6 725 61 369 173 693 442 1280 130 284 219 492 249 587 9 27 9 42 1 58 -12 23 -52 27 -68 7z" id="abdomen_2" class="abdome-path" data-part="abdomen_2" />
      <path d="M3664 7619 c-18 -19 -19 -39 -19 -258 0 -177 4 -265 18 -351 45 -290 160 -666 381 -1248 277 -730 469 -1318 611 -1868 166 -642 295 -958 661 -1616 287 -516 387 -740 485 -1083 22 -76 45 -143 52 -147 32 -20 67 0 67 40 0 24 -36 160 -72 272 -33 105 -105 285 -165 414 -50 108 -273 535 -293 561 -22 29 -227 421 -290 555 -158 337 -243 583 -370 1075 -135 524 -336 1133 -634 1924 -204 539 -282 791 -338 1096 -18 102 -22 159 -23 378 -1 212 -4 260 -16 268 -22 14 -34 11 -55 -12z" id="abdomen_3" class="abdome-path" data-part="abdomen_3" />
    </g>
  </g>
</svg>