<?xml version='1.0' encoding='utf-8'?>
<svg version="1.0" width="1000.000000pt" height="1000.000000pt" viewBox="0 0 10000 10000" preserveAspectRatio="xMidYMid meet" xmlns="http://www.w3.org/2000/svg">
  <title>SVG com regioes anatomicas agrupadas para edicao por JavaScript/React</title>
  <desc>Cada regiao editavel foi colocada em um grupo &lt;g id="..."&gt;. Use inline SVG, nao &lt;img&gt;, para manipular via CSS/JS.</desc>
  <g id="avatar_partes_anatomicas" class="avatar-partes-anatomicas" transform="scale(1,-1) translate(0,-10000)">
    <g id="quadril_editavel" class="regiao-anatomica" data-region="quadril">
      <path d="M3970 9524 c0 -8 11 -59 24 -112 64 -253 141 -646 161 -825 21 -191 14 -224 -104 -467 -247 -508 -322 -813 -322 -1315 0 -480 56 -846 251 -1630 156 -627 154 -621 153 -835 0 -144 -6 -210 -31 -370 -44 -277 -56 -427 -49 -620 11 -278 37 -437 157 -950 38 -162 91 -394 119 -515 109 -475 103 -440 106 -665 3 -204 3 -205 -26 -284 -33 -92 -102 -221 -171 -324 -65 -96 -81 -134 -69 -165 24 -63 179 -117 346 -122 50 -1 115 -5 145 -9 76 -8 143 16 184 67 29 36 31 45 31 115 0 43 -7 142 -14 222 -7 80 -14 233 -16 340 -2 156 -7 214 -23 290 -51 224 -51 690 -1 1240 35 390 36 572 4 885 -32 317 -30 443 9 660 38 210 48 390 35 660 -13 256 -8 409 21 725 11 118 20 251 20 295 0 146 17 111 24 -52 4 -87 11 -210 17 -275 22 -257 26 -441 17 -693 -11 -286 -2 -458 33 -657 32 -179 35 -384 10 -643 -25 -248 -29 -519 -12 -725 72 -874 73 -1207 5 -1473 -11 -43 -16 -133 -19 -330 -2 -150 -9 -301 -14 -337 -26 -159 -5 -248 67 -287 57 -31 78 -33 242 -23 247 16 390 70 390 148 0 19 -24 69 -66 138 -75 124 -129 227 -170 329 -27 69 -28 73 -28 275 0 191 3 215 32 355 46 219 72 333 157 695 42 179 87 374 100 433 106 472 118 821 45 1257 -23 137 -33 231 -37 360 -7 229 -11 207 162 930 108 451 163 729 207 1045 19 140 22 204 23 505 0 289 -3 363 -18 455 -54 325 -145 594 -308 915 -37 74 -73 155 -78 180 -32 141 6 410 134 960 51 221 53 240 26 240 -23 0 -20 10 -71 -210 -133 -572 -173 -855 -139 -1000 6 -25 52 -130 103 -235 111 -225 171 -381 220 -565 68 -263 86 -414 86 -740 0 -472 -51 -785 -293 -1795 -106 -440 -102 -415 -101 -640 0 -166 5 -228 27 -365 48 -299 52 -341 51 -560 0 -236 -15 -377 -63 -613 -30 -141 -44 -208 -140 -617 -177 -762 -180 -779 -176 -1020 2 -157 5 -194 23 -242 46 -128 145 -314 220 -415 24 -32 27 -73 6 -80 -6 -2 -14 5 -17 17 -3 11 -13 23 -22 26 -21 9 -38 -15 -23 -33 7 -9 7 -17 -2 -28 -16 -19 -30 -19 -30 -1 0 7 -7 19 -15 26 -22 19 -48 -5 -34 -31 8 -16 6 -21 -13 -28 -17 -7 -27 -4 -41 10 -20 22 -47 15 -47 -12 0 -16 -7 -19 -44 -19 -43 0 -44 0 -50 39 -3 22 -17 53 -30 68 -23 26 -26 27 -42 11 -16 -15 -15 -18 5 -44 31 -40 28 -71 -9 -79 -79 -17 -164 27 -176 91 -4 20 -1 99 5 177 21 248 28 431 20 497 -6 51 -4 82 10 140 43 171 46 213 46 605 -1 331 -4 424 -30 720 -34 401 -36 602 -9 835 13 112 19 235 19 380 0 195 -3 230 -29 375 l-30 160 3 450 c1 252 -3 508 -9 581 -21 266 -41 699 -46 1039 l-6 350 72 78 c71 79 80 100 44 105 -14 2 -39 -20 -84 -72 -36 -42 -68 -76 -71 -76 -4 0 -37 34 -74 75 -65 73 -105 95 -105 58 0 -10 32 -52 70 -95 l70 -76 0 -284 c0 -293 -19 -710 -45 -1016 -17 -204 -22 -412 -16 -807 4 -286 3 -305 -40 -530 -31 -165 -32 -419 -1 -722 30 -303 29 -345 -18 -922 -37 -453 -31 -964 13 -1145 18 -74 21 -114 19 -216 -3 -127 9 -342 30 -530 13 -117 8 -151 -26 -185 -45 -45 -166 -56 -181 -17 -3 9 3 28 15 44 23 31 23 63 1 63 -20 0 -52 -46 -60 -86 -6 -30 -11 -34 -41 -37 -44 -3 -68 11 -52 30 14 18 -1 43 -22 35 -9 -4 -21 -18 -26 -32 -14 -36 -42 -22 -38 19 2 25 -1 31 -17 31 -11 0 -24 -10 -30 -23 -6 -15 -17 -22 -30 -20 -17 3 -19 9 -17 41 2 32 0 37 -18 37 -13 0 -24 -10 -30 -26 -6 -14 -14 -22 -20 -19 -22 14 -7 56 49 136 67 96 160 275 189 364 17 51 20 87 20 240 0 197 -10 276 -63 505 -19 80 -52 226 -75 325 -23 99 -56 243 -75 320 -146 605 -182 852 -172 1179 4 105 13 232 21 281 62 368 77 620 48 785 -8 41 -67 291 -132 555 -130 524 -166 694 -205 957 -40 279 -55 465 -55 707 0 507 72 800 324 1311 81 165 97 207 107 273 21 142 -10 330 -172 1055 -10 45 -21 87 -24 92 -10 16 -45 11 -45 -6z" id="hip_1" class="quadril-path" data-part="hip_1" />
    </g>
    <g id="coxa_editavel" class="regiao-anatomica" data-region="coxa">
      <path d="M4247 4418 c-6 -19 19 -124 49 -200 19 -50 31 -68 44 -68 32 0 33 19 6 79 -14 31 -31 82 -37 112 -6 30 -16 62 -21 72 -10 20 -34 23 -41 5z" id="thigh_2" class="coxa-path" data-part="thigh_2" />
      <path d="M5546 4418 c-2 -7 -12 -44 -21 -82 -8 -38 -25 -86 -35 -107 -26 -49 -26 -79 -1 -79 24 0 56 65 82 168 24 96 24 112 -1 112 -11 0 -22 -6 -24 -12z" id="thigh_3" class="coxa-path" data-part="thigh_3" />
    </g>
  </g>
</svg>