<?xml version='1.0' encoding='utf-8'?>
<svg version="1.0" width="1000.000000pt" height="1000.000000pt" viewBox="0 0 10000 10000" preserveAspectRatio="xMidYMid meet" xmlns="http://www.w3.org/2000/svg">
  <title>SVG com regioes anatomicas agrupadas para edicao por JavaScript/React</title>
  <desc>Cada regiao editavel foi colocada em um grupo &lt;g id="..."&gt;. Use inline SVG, nao &lt;img&gt;, para manipular via CSS/JS.</desc>
  <g id="avatar_partes_anatomicas" class="avatar-partes-anatomicas" transform="scale(1,-1) translate(0,-10000)">
    <g id="torax_ombro_editavel" class="regiao-anatomica" data-region="torax_ombro">
      <path d="M4153 9213 c-9 -22 13 -224 32 -298 24 -94 60 -157 133 -236 l67 -73 -3 -130 c-3 -189 -25 -326 -65 -406 -26 -52 -45 -74 -99 -115 -177 -133 -365 -210 -918 -375 -239 -72 -305 -96 -418 -158 -390 -210 -644 -622 -747 -1212 -46 -268 -66 -351 -111 -478 -93 -261 -153 -515 -204 -862 -33 -226 -99 -609 -115 -675 -8 -33 -32 -91 -52 -130 -104 -200 -136 -274 -187 -425 -90 -270 -156 -498 -226 -780 -22 -91 -47 -190 -55 -220 -8 -30 -26 -109 -40 -175 -14 -66 -32 -150 -40 -186 -17 -75 -93 -461 -124 -624 -31 -168 -35 -213 -21 -230 30 -36 65 -6 74 62 13 83 104 548 162 818 97 456 226 939 347 1305 56 168 104 278 177 406 54 95 95 269 150 634 44 292 61 393 90 540 40 201 58 266 135 495 62 185 75 238 110 455 66 411 224 773 432 990 191 200 383 295 842 416 112 30 365 117 463 160 188 81 372 201 423 275 57 82 88 214 101 427 4 67 9 122 11 122 2 0 28 -20 58 -45 73 -59 188 -136 251 -168 94 -48 166 -61 329 -61 135 0 157 3 222 26 75 27 224 119 332 206 35 29 68 52 73 52 4 0 8 -35 8 -78 0 -88 24 -308 41 -367 29 -104 84 -167 224 -258 185 -119 346 -181 856 -331 451 -133 660 -278 848 -590 134 -222 208 -451 281 -872 16 -94 38 -198 49 -230 11 -33 42 -125 69 -206 58 -170 110 -393 147 -628 109 -704 152 -907 205 -985 180 -261 466 -1322 650 -2415 26 -153 32 -170 64 -170 45 0 47 25 21 176 -96 538 -156 828 -256 1234 -150 608 -278 1001 -379 1171 -65 107 -85 164 -114 329 -25 138 -27 155 -71 440 -71 460 -117 665 -210 938 -53 154 -79 248 -90 322 -55 375 -109 564 -230 815 -141 292 -302 467 -549 596 -118 61 -232 103 -501 183 -467 138 -640 211 -813 341 -116 86 -147 187 -159 512 l-6 162 56 60 c89 96 116 166 146 379 20 137 17 162 -23 162 -34 0 -43 -17 -51 -100 -12 -119 -40 -242 -70 -300 -36 -71 -166 -199 -315 -311 -203 -153 -277 -183 -455 -183 -132 0 -208 15 -295 59 -152 77 -449 324 -507 422 -38 65 -59 144 -73 273 -7 63 -17 121 -23 128 -14 18 -57 15 -64 -5z" id="upper_structure_1" class="torax_ombro-path" data-part="upper_structure_1" />
      <path d="M2986 6104 c-9 -8 -16 -20 -16 -26 0 -6 28 -63 61 -127 l62 -116 -6 -110 c-22 -426 -199 -994 -497 -1595 -140 -282 -170 -371 -306 -915 -231 -924 -311 -1178 -518 -1644 -25 -57 -46 -111 -46 -121 0 -24 25 -43 48 -36 21 7 29 23 118 228 193 444 264 681 525 1743 82 336 123 449 273 752 183 369 344 797 407 1081 12 56 25 102 29 102 4 0 17 -64 30 -142 42 -270 102 -499 194 -745 108 -287 119 -416 65 -743 -35 -213 -46 -429 -31 -590 6 -61 6 -128 1 -160 -16 -108 -49 -338 -74 -525 -38 -274 -92 -657 -117 -826 -11 -81 -18 -154 -15 -163 4 -10 18 -16 41 -16 29 0 37 4 40 22 4 19 51 359 71 508 2 19 13 96 24 170 11 74 27 189 36 255 9 66 25 181 35 255 55 399 53 372 40 527 -15 171 -9 271 28 483 23 134 27 182 27 360 l0 205 -53 150 c-29 83 -73 209 -97 280 -86 261 -157 643 -181 975 -7 109 -15 111 89 -17 117 -142 225 -229 337 -270 125 -46 235 -58 550 -58 305 0 365 6 494 45 78 24 155 82 190 143 35 59 34 95 -1 103 -28 8 -40 -2 -86 -76 -57 -89 -194 -127 -492 -137 -275 -9 -537 18 -649 67 -156 67 -380 331 -526 620 -52 101 -71 117 -104 84z" id="upper_structure_2" class="torax_ombro-path" data-part="upper_structure_2" />
      <path d="M7162 6113 c-7 -3 -24 -28 -39 -56 -181 -358 -409 -624 -581 -677 -108 -34 -237 -45 -507 -45 -276 0 -373 12 -475 56 -57 25 -75 42 -117 107 -29 45 -38 53 -61 50 -60 -7 -25 -111 61 -182 53 -43 111 -69 213 -92 68 -17 121 -19 394 -18 282 0 326 3 419 22 182 38 281 101 422 268 41 48 84 99 97 113 l23 26 -6 -105 c-6 -102 -40 -349 -71 -520 -26 -141 -90 -377 -145 -530 -28 -80 -64 -181 -80 -225 -58 -167 -62 -338 -13 -640 26 -159 28 -190 29 -480 0 -304 1 -315 38 -565 20 -140 53 -367 73 -505 19 -137 42 -295 50 -350 8 -55 21 -152 30 -215 8 -63 17 -121 19 -127 5 -15 71 -17 80 -3 5 9 -9 117 -74 575 -47 324 -69 477 -91 635 -11 80 -28 193 -37 252 -15 94 -15 124 -5 245 7 76 12 161 12 188 0 62 -24 257 -48 385 -12 70 -17 147 -17 290 l0 195 36 100 c20 55 53 145 73 200 75 204 139 461 182 728 9 59 20 107 24 107 4 0 17 -48 29 -107 62 -290 214 -684 466 -1213 97 -203 135 -313 199 -575 142 -577 239 -941 332 -1245 74 -239 282 -742 317 -764 21 -14 51 3 55 31 2 10 -26 84 -61 164 -35 79 -85 198 -111 264 -26 66 -56 140 -66 165 -67 167 -185 595 -390 1420 -63 255 -95 346 -180 530 -37 80 -102 219 -145 310 -236 506 -379 985 -407 1370 l-12 156 62 121 c34 67 62 129 62 137 0 13 -30 38 -42 35 -2 0 -9 -3 -16 -6z" id="upper_structure_3" class="torax_ombro-path" data-part="upper_structure_3" />
    </g>
  </g>
</svg>