<?xml version='1.0' encoding='utf-8'?>
<svg version="1.0" width="1000.000000pt" height="1000.000000pt" viewBox="0 0 10000 10000" preserveAspectRatio="xMidYMid meet" xmlns="http://www.w3.org/2000/svg">
  <title>SVG com regioes anatomicas agrupadas para edicao por JavaScript/React</title>
  <desc>Cada regiao editavel foi colocada em um grupo &lt;g id="..."&gt;. Use inline SVG, nao &lt;img&gt;, para manipular via CSS/JS.</desc>
  <g id="avatar_partes_anatomicas" class="avatar-partes-anatomicas" transform="scale(1,-1) translate(0,-10000)">
    <g id="torax_ombro_editavel" class="regiao-anatomica" data-region="torax_ombro">
      <path d="M4100 9126 c0 -27 59 -195 91 -258 38 -75 87 -154 139 -223 l38 -50 6 -140 c4 -77 2 -203 -3 -280 -19 -273 -57 -378 -170 -471 -162 -134 -696 -355 -1106 -458 -250 -63 -366 -119 -492 -240 -150 -141 -226 -294 -287 -571 -50 -228 -81 -507 -96 -855 -15 -356 -27 -542 -55 -819 -31 -301 -50 -549 -70 -916 -27 -503 -29 -513 -168 -870 -51 -131 -158 -477 -153 -492 3 -7 17 -13 30 -13 23 0 28 7 46 73 47 160 122 382 175 516 102 256 101 252 146 981 12 202 47 629 59 726 15 118 39 493 50 774 14 370 61 753 120 977 65 248 183 424 360 538 82 52 148 79 275 111 374 95 642 189 923 324 383 185 449 280 473 685 6 99 8 217 4 263 -4 45 -4 82 -1 82 4 0 35 -26 69 -58 163 -152 363 -242 536 -242 163 0 348 83 506 229 l60 55 6 -185 c12 -351 49 -506 146 -610 149 -160 588 -357 1119 -504 318 -88 359 -106 484 -209 258 -212 358 -593 390 -1486 10 -274 18 -358 74 -790 38 -293 56 -506 66 -805 18 -515 27 -586 106 -800 25 -66 63 -169 85 -230 33 -90 87 -260 117 -370 8 -32 23 -45 48 -45 15 0 24 6 24 16 0 36 -97 331 -193 589 -103 277 -103 275 -117 705 -12 378 -27 570 -75 954 -61 483 -64 524 -75 817 -14 412 -33 607 -87 869 -72 355 -200 561 -438 707 -71 44 -160 77 -320 118 -369 96 -789 259 -1018 395 -155 92 -211 168 -242 334 -23 128 -37 352 -29 490 l6 119 73 96 c40 53 91 130 113 171 46 84 106 255 98 276 -11 29 -66 9 -66 -24 0 -25 -70 -191 -108 -256 -74 -128 -230 -305 -357 -405 -228 -181 -457 -205 -695 -73 -245 136 -469 409 -551 672 -13 41 -27 81 -32 88 -13 17 -57 15 -57 -2z" id="upper_structure_1" class="torax_ombro-path" data-part="upper_structure_1" />
      <path d="M3151 5876 c-9 -11 -7 -41 10 -132 l23 -118 -20 -150 c-23 -185 -23 -383 1 -510 17 -92 17 -93 -9 -257 -14 -90 -37 -218 -51 -284 -14 -66 -30 -142 -35 -170 -5 -27 -18 -93 -29 -145 -21 -99 -58 -279 -136 -655 -25 -121 -55 -263 -66 -315 -20 -90 -37 -357 -38 -587 l-1 -83 29 0 c28 0 28 1 34 68 4 37 7 126 7 197 0 186 16 336 51 493 17 75 59 277 94 447 35 171 76 364 90 430 36 168 115 597 115 623 0 68 46 -21 60 -116 51 -341 76 -498 109 -687 133 -745 141 -800 141 -968 0 -145 -20 -241 -79 -377 -22 -52 -38 -97 -35 -102 3 -4 16 -8 29 -8 31 0 59 53 103 191 70 217 66 350 -23 854 -107 603 -179 1045 -171 1053 3 3 26 -14 51 -37 154 -142 434 -223 667 -192 163 22 265 58 398 143 89 55 123 89 118 114 -6 33 -36 26 -100 -24 -74 -58 -187 -117 -278 -144 -91 -28 -318 -36 -416 -15 -163 35 -295 107 -399 219 -160 171 -214 422 -170 793 32 271 -10 528 -74 451z" id="upper_structure_2" class="torax_ombro-path" data-part="upper_structure_2" />
      <path d="M6853 5878 c-6 -7 -18 -44 -28 -83 -22 -88 -21 -226 1 -376 22 -153 15 -401 -14 -508 -88 -317 -364 -512 -727 -514 -190 0 -350 52 -508 167 -43 31 -82 56 -86 56 -17 0 -33 -29 -24 -43 13 -24 108 -95 176 -132 141 -78 330 -122 478 -111 215 14 398 83 528 197 24 22 47 39 51 39 13 0 -33 -299 -145 -935 -114 -655 -115 -821 -3 -1082 27 -61 39 -79 57 -81 52 -8 54 3 12 86 -74 147 -86 204 -85 397 0 173 11 269 59 540 105 591 160 925 176 1073 11 98 41 193 56 178 3 -3 18 -76 34 -163 47 -262 94 -507 179 -933 109 -547 113 -575 138 -1045 7 -127 8 -130 31 -133 13 -2 27 0 31 5 11 12 -25 581 -44 693 -18 101 -35 194 -90 465 -19 94 -53 267 -76 385 -22 118 -47 244 -56 280 -8 36 -25 130 -39 210 -14 80 -34 196 -45 258 -18 105 -19 120 -5 200 22 136 27 239 16 337 -34 295 -35 311 -22 412 19 141 19 167 0 171 -9 1 -20 -3 -26 -10z" id="upper_structure_3" class="torax_ombro-path" data-part="upper_structure_3" />
    </g>
  </g>
</svg>