<?xml version="1.0" standalone="no"?>
<!DOCTYPE svg PUBLIC "-//W3C//DTD SVG 20010904//EN"
 "http://www.w3.org/TR/2001/REC-SVG-20010904/DTD/svg10.dtd">
<svg version="1.0" xmlns="http://www.w3.org/2000/svg"
 width="1000.000000pt" height="1000.000000pt" viewBox="0 0 1000.000000 1000.000000"
 preserveAspectRatio="xMidYMid meet">

<g transform="translate(0.000000,1000.000000) scale(0.100000,-0.100000)"
fill="#000000" stroke="none">
<path d="M4202 9338 c-7 -7 -12 -24 -12 -39 0 -58 -31 -267 -51 -339 -30 -109
-82 -212 -213 -420 -404 -641 -590 -1276 -589 -2015 0 -377 39 -652 154 -1110
43 -169 52 -202 204 -709 304 -1015 345 -1217 332 -1636 -13 -427 -73 -706
-247 -1155 -169 -437 -228 -654 -260 -963 -11 -104 -10 -115 6 -133 41 -45 79
-15 88 73 35 331 99 579 251 963 168 425 229 683 256 1085 33 488 -21 785
-321 1762 -287 934 -360 1302 -360 1818 1 482 67 865 220 1270 102 268 189
438 368 720 58 91 123 201 144 245 50 105 96 288 109 438 9 107 8 121 -7 138
-19 22 -54 25 -72 7z"/>
<path d="M5631 9161 c-38 -24 -117 -653 -109 -868 5 -161 28 -204 262 -507
354 -457 431 -566 513 -731 109 -218 148 -385 140 -600 -5 -138 -33 -279 -81
-414 -9 -24 -16 -54 -16 -66 0 -40 58 -73 77 -42 14 22 63 169 88 265 110 416
-7 817 -386 1320 -52 70 -166 217 -252 327 -105 133 -172 229 -202 289 -44 85
-45 91 -45 181 0 84 34 470 45 520 6 22 45 283 45 295 0 15 -31 40 -48 40 -9
0 -23 -4 -31 -9z"/>
<path d="M5564 6754 c-21 -50 -80 -284 -94 -374 -8 -46 -15 -294 -20 -645 -10
-707 -39 -1065 -107 -1293 -14 -48 -27 -94 -30 -103 -2 -9 38 -144 91 -300
172 -513 283 -944 345 -1339 15 -93 28 -242 46 -494 32 -467 95 -773 257
-1254 41 -122 59 -149 92 -136 32 12 26 47 -43 257 -131 400 -191 693 -216
1062 -28 410 -43 541 -96 820 -20 108 -96 426 -123 515 -8 25 -24 81 -36 125
-30 107 -67 226 -157 497 l-75 227 26 98 c32 122 52 246 71 433 31 306 37 431
45 960 9 605 12 632 91 877 23 72 15 103 -27 103 -19 0 -28 -8 -40 -36z"/>
<path d="M4242 6632 c-18 -15 -23 -40 -37 -207 -36 -436 -30 -871 20 -1307 35
-306 67 -500 135 -808 20 -89 45 -333 70 -675 42 -587 106 -886 263 -1222 36
-76 191 -394 344 -708 254 -516 358 -745 379 -830 14 -61 62 -86 84 -44 27 50
-68 267 -520 1184 -295 598 -319 656 -366 853 -51 217 -69 369 -119 1002 -22
284 -30 348 -65 505 -106 482 -149 857 -157 1370 -5 311 -2 409 23 786 6 91 6
97 -14 108 -16 8 -24 7 -40 -7z"/>
</g>
</svg>
